<svg width="44" height="43" viewBox="0 0 44 43" fill="none" xmlns="http://www.w3.org/2000/svg">
<g id="gg:check-o">
<g id="Group">
<path id="Vector" d="M18.852 29.2293L11.25 21.6254L13.7834 19.092L18.852 24.1588L28.9857 14.0234L31.5209 16.5586L18.852 29.2293Z" fill="url(#paint0_linear_7373_400)"/>
<path id="Vector_2" fill-rule="evenodd" clip-rule="evenodd" d="M2.29175 21.5C2.29175 10.6156 11.1157 1.79169 22.0001 1.79169C32.8845 1.79169 41.7084 10.6156 41.7084 21.5C41.7084 32.3844 32.8845 41.2084 22.0001 41.2084C11.1157 41.2084 2.29175 32.3844 2.29175 21.5ZM22.0001 37.625C19.8825 37.625 17.7857 37.2079 15.8293 36.3976C13.8729 35.5872 12.0953 34.3995 10.598 32.9021C9.10064 31.4048 7.91288 29.6272 7.10252 27.6708C6.29217 25.7144 5.87508 23.6176 5.87508 21.5C5.87508 19.3825 6.29217 17.2856 7.10252 15.3293C7.91288 13.3729 9.10064 11.5953 10.598 10.0979C12.0953 8.60058 13.8729 7.41282 15.8293 6.60246C17.7857 5.79211 19.8825 5.37502 22.0001 5.37502C26.2767 5.37502 30.3782 7.0739 33.4022 10.0979C36.4262 13.1219 38.1251 17.2234 38.1251 21.5C38.1251 25.7766 36.4262 29.8781 33.4022 32.9021C30.3782 35.9261 26.2767 37.625 22.0001 37.625Z" fill="url(#paint1_linear_7373_400)"/>
</g>
</g>
<defs>
<linearGradient id="paint0_linear_7373_400" x1="22.7932" y1="24.583" x2="22.7932" y2="15.9241" gradientUnits="userSpaceOnUse">
<stop stop-color="#FED215"/>
<stop offset="1" stop-color="white"/>
</linearGradient>
<linearGradient id="paint1_linear_7373_400" x1="24.7373" y1="29.1644" x2="24.7373" y2="6.71877" gradientUnits="userSpaceOnUse">
<stop stop-color="#FED215"/>
<stop offset="1" stop-color="white"/>
</linearGradient>
</defs>
</svg>
