<svg width="24" height="24" viewBox="0 0 24 24" fill="none" xmlns="http://www.w3.org/2000/svg">
<path d="M8.99986 22.8743C8.94439 22.8742 8.88961 22.8619 8.83948 22.8382C8.78935 22.8144 8.74512 22.7798 8.70996 22.7369C8.6748 22.694 8.6496 22.6439 8.63616 22.59C8.62273 22.5362 8.6214 22.4801 8.63227 22.4257L10.0697 15.2384L4.36834 13.1004C4.31061 13.0787 4.25911 13.0432 4.2184 12.9969C4.17769 12.9506 4.14902 12.895 4.13493 12.8349C4.12084 12.7749 4.12176 12.7123 4.13762 12.6528C4.15348 12.5932 4.18378 12.5384 4.22584 12.4934L14.7258 1.24337C14.7815 1.18373 14.8551 1.14388 14.9355 1.12985C15.0159 1.11583 15.0986 1.12839 15.1712 1.16565C15.2438 1.20291 15.3023 1.26282 15.3377 1.3363C15.3732 1.40978 15.3837 1.49282 15.3677 1.57282L13.9302 8.76012L19.6317 10.8982C19.6894 10.9198 19.7409 10.9553 19.7816 11.0016C19.8223 11.0479 19.851 11.1036 19.8651 11.1636C19.8792 11.2236 19.8782 11.2862 19.8624 11.3457C19.8465 11.4053 19.8162 11.4601 19.7741 11.5051L9.27415 22.7551C9.23905 22.7928 9.19658 22.8227 9.14939 22.8432C9.1022 22.8637 9.0513 22.8743 8.99986 22.8743Z" fill="white"/>
</svg>
