    <svg
      width="43"
      height="44"
      viewBox="0 0 43 44"
      fill="none"
      xmlns="http://www.w3.org/2000/svg"
    >
      <path
        d="M9.76338 31.8063C8.7149 30.3304 8.73607 30.3544 7.77492 28.8025C6.85943 27.1116 5.86736 25.0666 5.41289 23.1662C4.99854 21.4255 4.91337 19.5901 4.9861 17.8026C5.07952 15.9922 5.28091 14.5479 5.47263 13.6682C5.47263 13.6682 4.82212 15.2777 4.52189 17.7548C4.30521 19.5586 4.32801 21.3776 4.61092 23.1575C4.9286 25.1699 5.76318 27.5232 6.59445 29.403C7.45724 31.12 7.63427 31.3122 8.47752 32.8163C9.02865 33.6753 10.1087 35.0782 10.6761 35.7398C9.04705 35.2119 8.78539 37.7532 9.64277 38.4243C10.4311 39.0412 11.8805 38.3104 12.1623 37.8564C12.4533 37.4068 12.1041 36.6639 11.4396 36.1384C11.6844 36.1448 11.9327 36.0612 12.1253 35.8799C12.4718 35.5573 12.5603 34.9231 12.1742 34.5083C9.53696 31.6867 10.4638 32.7272 9.76338 31.8063Z"
        fill="white"
      />
      <path
        d="M5.98101 12.9006C6.48432 13.0853 7.09958 12.6737 7.41997 11.9949C7.69685 11.3129 8.38646 9.35172 7.98138 9.04209C7.52042 8.71406 5.98913 10.3866 5.66556 11.1729C5.30655 11.9352 5.47926 12.7162 5.98101 12.9006Z"
        fill="white"
      />
      <path
        d="M6.2605 14.4158C6.15571 14.4733 6.0606 14.5308 5.98957 14.5928C5.47043 14.9989 5.2641 15.8797 5.54701 16.4671C5.59809 16.5735 5.67027 16.6441 5.73981 16.7191C6.0558 17.0482 6.52176 17.0526 6.89525 16.7125C7.33673 16.2673 8.40585 14.8958 8.2261 14.3398C8.06206 13.8282 6.90824 14.0618 6.2605 14.4158Z"
        fill="white"
      />
      <path
        d="M7.04581 21.6287C7.32168 21.0628 8.41691 18.8647 8.12799 18.4272C7.78589 17.9015 5.93921 19.3362 5.58351 19.9096C4.69569 21.1084 6.19979 22.9567 7.04581 21.6287Z"
        fill="white"
      />
      <path
        d="M6.59251 25.0197C6.32915 25.7072 6.66631 26.654 7.30492 27.02C7.94345 27.3892 8.57604 27.0624 8.76552 26.4011C8.87471 25.6842 9.41982 22.9899 8.97516 22.6229C8.43431 22.1581 6.80046 24.265 6.59251 25.0197Z"
        fill="white"
      />
      <path
        d="M10.5095 32.0129C11.348 32.1899 11.9044 31.5992 11.8622 30.8108C11.6921 29.9821 11.381 26.9 10.7989 26.6633C10.0556 26.3321 8.95055 29.1546 9.00108 30.0647C8.95271 30.9084 9.67277 31.8402 10.5095 32.0129Z"
        fill="white"
      />
      <path
        d="M4.30093 16.2029C4.76899 15.7174 4.96883 14.8692 4.76784 14.2198C4.54528 13.5943 3.6971 12.1163 3.13724 12.567C2.53286 13.0471 2.64584 15.3199 2.95208 15.9553C3.22261 16.6155 3.83341 16.684 4.30093 16.2029Z"
        fill="white"
      />
      <path
        d="M3.91223 21.9488C4.22666 21.3514 4.18045 20.4794 3.80419 19.9136C3.38984 19.4108 1.82993 17.2704 1.41234 17.8242C0.906323 18.467 2.04275 21.5925 2.54938 22.0889C2.99295 22.6482 3.59888 22.5449 3.91223 21.9488Z"
        fill="white"
      />
      <path
        d="M3.71068 28.5416C4.39921 29.0259 5.03173 28.7003 5.17189 27.9237C5.31145 27.1451 4.97098 26.184 4.37046 25.6713C3.74166 25.2468 1.33405 23.3071 1.04187 24.0609C0.662902 24.9546 2.96134 28.1594 3.71068 28.5416Z"
        fill="white"
      />
      <path
        d="M7.00116 31.4067C6.16063 31.1666 2.87168 29.7864 2.80708 30.716C2.67679 31.8509 6.36642 34.6645 7.35463 34.8124C8.30103 35.1077 8.85765 34.5158 8.70889 33.6113C8.55844 32.7033 7.83676 31.7705 7.00116 31.4067Z"
        fill="white"
      />
      <path
        d="M33.2414 35.7398C34.9432 33.7568 36.1014 31.8346 37.3231 29.403C38.1375 27.5622 38.9814 25.2176 39.3067 23.1575C39.57 21.5014 39.5853 19.9593 39.4798 18.6138C39.3278 16.6406 38.8495 14.6694 38.445 13.6682C38.6877 14.7802 38.9348 16.746 38.9526 18.6334C38.9701 20.1375 38.8528 21.7035 38.5047 23.1674C38.0133 25.2285 37.0376 27.1486 36.1427 28.8025C33.9235 32.3841 33.6455 32.4733 31.7439 34.5083C31.3572 34.9243 31.4463 35.5584 31.7923 35.8799C31.985 36.0613 32.2331 36.1448 32.478 36.1384C31.8134 36.6639 31.4643 37.4068 31.7553 37.8564C32.0372 38.3104 33.4863 39.0412 34.2748 38.4243C35.0621 37.8074 34.6815 36.2426 34.3106 35.8592C34.0787 35.6127 33.6741 35.5997 33.2414 35.7398Z"
        fill="white"
      />
      <path
        d="M37.9365 12.9006C38.4381 12.7161 38.6108 11.9352 38.2519 11.1729C37.9282 10.3866 36.3971 8.71406 35.936 9.04209C35.531 9.35172 36.2205 11.3129 36.4974 11.9949C36.8178 12.6737 37.433 13.0854 37.9365 12.9006Z"
        fill="white"
      />
      <path
        d="M38.3695 16.4675C38.6524 15.88 38.446 14.9993 37.927 14.5932C37.4415 14.1772 35.8853 13.7341 35.6903 14.3401C35.5106 14.8961 36.5797 16.2677 37.0213 16.7129C37.5171 17.1637 38.1273 16.9725 38.3695 16.4675Z"
        fill="white"
      />
      <path
        d="M35.7891 18.4272C35.5002 18.8648 36.5954 21.0628 36.8713 21.6287C37.1949 22.1368 37.8009 22.2401 38.2346 21.7666C38.6441 21.3278 38.6859 20.3851 38.3335 19.9096C37.9778 19.3362 36.1311 17.9015 35.7891 18.4272Z"
        fill="white"
      />
      <path
        d="M36.6123 27.02C37.2504 26.654 37.5876 25.7072 37.3242 25.0197C37.1162 24.265 35.4824 22.1581 34.9416 22.6229C34.4969 22.99 35.042 25.6843 35.1512 26.4011C35.3407 27.0624 35.9732 27.3892 36.6123 27.02Z"
        fill="white"
      />
      <path
        d="M33.1186 26.6633C32.5365 26.9 32.2253 29.9821 32.0555 30.8108C32.0131 31.5992 32.5697 32.19 33.4081 32.0129C34.2448 31.8402 34.9649 30.9084 34.9164 30.0647C34.967 29.1546 33.862 26.3321 33.1186 26.6633Z"
        fill="white"
      />
      <path
        d="M40.9649 16.0222C41.271 15.3868 41.3841 13.114 40.7798 12.6339C40.2198 12.1832 39.3717 13.6612 39.149 14.2867C38.9482 14.9362 39.148 15.7843 39.6161 16.2698C40.0836 16.7509 40.6945 16.6824 40.9649 16.0222Z"
        fill="white"
      />
      <path
        d="M40.0048 21.9488C40.3182 22.5448 40.9241 22.6482 41.3678 22.0889C41.8744 21.5925 43.0108 18.467 42.5048 17.8242C42.0873 17.2704 40.5272 19.4108 40.113 19.9136C39.7366 20.4795 39.6904 21.3514 40.0048 21.9488Z"
        fill="white"
      />
      <path
        d="M38.745 27.9236C38.8851 28.7001 39.5177 29.0259 40.2062 28.5416C40.9555 28.1594 43.254 24.9546 42.875 24.0609C42.5829 23.3071 40.1752 25.2467 39.5464 25.6713C38.9459 26.1839 38.6054 27.145 38.745 27.9236Z"
        fill="white"
      />
      <path
        d="M36.9164 31.4067C36.0808 31.7705 35.3591 32.7033 35.2087 33.6112C35.06 34.5158 35.6165 35.1077 36.563 34.8124C37.5512 34.6645 41.2409 31.851 41.1106 30.716C41.0459 29.7864 37.7569 31.1667 36.9164 31.4067Z"
        fill="white"
      />
    </svg>
