<svg width="24" height="24" viewBox="0 0 24 24" fill="none" xmlns="http://www.w3.org/2000/svg">
<g clip-path="url(#clip0_7135_152)">
<path d="M19.9672 5.82519L18.966 2.15684L15.5638 3.08542L14.1465 0.224609L2.84187 5.82519H0V23.7754H22.4565V18.9372H24V10.5815H22.4565V5.82519H19.9672ZM17.7853 4.22404L18.2223 5.82522H16.9211H15.0425H11.9187L14.6704 5.07416L16.3253 4.6225L17.7853 4.22404ZM20.7731 22.0921H1.68337V12.9239V9.72721V9.47389V7.74629V7.50858H2.55429H3.236H5.75095H15.8765H17.7552H18.6818H19.5542H20.4267H20.7731V8.77784V10.5815H20.3929H19.5205H17.3457H13.5538H12.1869V11.2587V13.1374V13.3542V14.2267V15.0991V18.9372H20.7732V22.092H20.7731V22.0921ZM22.3166 17.2539H21.6148H20.7731H13.8702V14.6397V13.7673V12.8948V12.3034V12.2649H13.9479H16.178H19.3747H20.7732H21.6148H21.7249H22.3166V17.2539ZM13.3854 2.4803L13.909 3.53705L7.99356 5.15155L13.3854 2.4803Z" fill="white"/>
<path d="M15.2034 13.9761V14.2758V15.6243H16.8517V13.9761H16.3013H15.2034Z" fill="white"/>
</g>
<defs>
<clipPath id="clip0_7135_152">
<rect width="24" height="24" fill="white"/>
</clipPath>
</defs>
</svg>
